<?xml version="1.0" standalone="no"?>
<!DOCTYPE svg PUBLIC "-//W3C//DTD SVG 20010904//EN"
 "http://www.w3.org/TR/2001/REC-SVG-20010904/DTD/svg10.dtd">
<svg version="1.0" xmlns="http://www.w3.org/2000/svg"
 width="356.000000pt" height="338.000000pt" viewBox="0 0 356.000000 338.000000"
 preserveAspectRatio="xMidYMid meet">

<g transform="translate(0.000000,338.000000) scale(0.100000,-0.100000)"
fill="#000000" stroke="none">
<path d="M1550 3204 c-300 -56 -460 -118 -664 -257 -50 -34 -141 -111 -201
-172 -210 -209 -340 -450 -407 -752 -31 -142 -31 -444 0 -586 67 -302 197
-543 407 -752 215 -215 455 -344 765 -412 129 -28 449 -25 583 5 130 29 259
73 354 121 811 408 1075 1415 569 2168 -169 252 -452 468 -736 564 -169 56
-259 71 -460 74 -102 2 -196 1 -210 -1z m-170 -716 c36 -26 79 -27 645 -8 410
14 505 9 593 -30 58 -26 90 -55 108 -97 20 -46 17 -86 -7 -117 -27 -34 -39
-33 -39 4 0 20 -8 34 -23 44 -33 23 -187 37 -312 30 l-110 -7 -49 -131 c-63
-170 -207 -486 -297 -651 -165 -301 -339 -524 -455 -581 -132 -65 -291 -9
-459 160 -162 162 -203 253 -156 344 26 50 51 67 76 48 14 -10 15 -17 6 -34
-32 -60 14 -161 96 -209 38 -22 52 -25 98 -20 167 17 360 230 568 628 94 181
190 390 182 398 -3 2 -78 -12 -168 -32 -89 -21 -178 -37 -198 -37 -65 0 -136
67 -159 149 -14 50 -13 144 2 159 17 17 24 15 58 -10z"/>
</g>
</svg>
