<?xml version="1.0" standalone="no"?>
<!DOCTYPE svg PUBLIC "-//W3C//DTD SVG 20010904//EN"
 "http://www.w3.org/TR/2001/REC-SVG-20010904/DTD/svg10.dtd">
<svg version="1.0" xmlns="http://www.w3.org/2000/svg"
 width="291.000000pt" height="291.000000pt" viewBox="0 0 291.000000 291.000000"
 preserveAspectRatio="xMidYMid meet">

<g transform="translate(0.000000,291.000000) scale(0.100000,-0.100000)"
fill="#000000" stroke="none">
<path d="M1330 2904 c-365 -43 -657 -181 -900 -424 -213 -212 -348 -470 -407
-775 -23 -123 -23 -377 0 -500 59 -305 194 -563 407 -775 212 -213 470 -348
775 -407 123 -23 377 -23 500 0 305 59 563 194 775 407 213 212 348 470 407
775 23 123 23 377 0 500 -59 305 -194 563 -407 775 -208 208 -462 344 -749
401 -92 18 -328 32 -401 23z m-220 -706 c36 -26 79 -27 645 -8 410 14 505 9
593 -30 58 -26 90 -55 108 -97 20 -46 17 -86 -7 -117 -27 -34 -39 -33 -39 4 0
20 -8 34 -23 44 -33 23 -187 37 -312 30 l-110 -7 -49 -131 c-63 -170 -207
-486 -297 -651 -165 -301 -339 -524 -455 -581 -132 -65 -291 -9 -459 160 -162
162 -203 253 -156 344 26 50 51 67 76 48 14 -10 15 -17 6 -34 -32 -60 14 -161
96 -209 38 -22 52 -25 98 -20 167 17 360 230 568 628 94 181 190 390 182 398
-3 2 -78 -12 -168 -32 -89 -21 -178 -37 -198 -37 -65 0 -136 67 -159 149 -14
50 -13 144 2 159 17 17 24 15 58 -10z" fill="#bb1111" />
</g>
</svg>
